<?xml version="1.0" standalone="no"?>
<!DOCTYPE svg PUBLIC "-//W3C//DTD SVG 20010904//EN"
 "http://www.w3.org/TR/2001/REC-SVG-20010904/DTD/svg10.dtd">
<svg version="1.0" xmlns="http://www.w3.org/2000/svg"
 width="361.000000pt" height="135.000000pt" viewBox="0 0 361.000000 135.000000"
 preserveAspectRatio="xMidYMid meet">

<g transform="translate(0.000000,135.000000) scale(0.100000,-0.100000)"
fill="#000000" stroke="none">
<path d="M92 1215 c-32 -36 -32 -44 -4 -116 14 -34 108 -136 143 -154 43 -23
58 -18 19 6 -19 12 -48 33 -64 48 -35 32 -91 144 -75 150 6 2 68 -53 138 -123
l126 -126 133 133 c72 73 132 138 132 144 0 16 -33 33 -65 33 -47 0 -128 -53
-177 -115 -20 -26 -17 -25 33 13 63 47 116 72 156 72 25 0 19 -8 -72 -100
l-100 -100 -135 135 c-74 74 -140 135 -147 135 -6 0 -25 -16 -41 -35z"/>
<path d="M700 758 c-74 -21 -114 -82 -114 -179 0 -113 50 -171 157 -177 103
-5 168 46 183 143 15 101 -36 191 -121 214 -47 13 -58 13 -105 -1z m110 -78
c26 -26 34 -60 28 -122 -9 -88 -76 -125 -135 -74 -26 22 -28 30 -28 94 0 61 3
74 24 96 30 32 82 35 111 6z"/>
<path d="M100 580 l0 -180 105 0 105 0 0 35 0 35 -65 0 -65 0 0 145 0 145 -40
0 -40 0 0 -180z"/>
<path d="M330 580 l0 -180 115 0 115 0 0 35 0 35 -75 0 -75 0 0 40 0 40 60 0
60 0 0 35 0 35 -60 0 -60 0 0 35 0 35 70 0 70 0 0 35 0 35 -110 0 -110 0 0
-180z"/>
<path d="M970 579 l0 -180 38 3 37 3 -3 130 c-2 122 -1 128 13 97 8 -18 40
-78 71 -133 l56 -99 49 0 49 0 0 180 0 180 -41 0 -42 0 5 -132 c3 -73 3 -126
0 -118 -2 8 -33 68 -69 133 l-65 117 -49 0 -49 0 0 -181z"/>
<path d="M1366 590 c-36 -93 -66 -174 -66 -180 0 -14 66 -12 78 3 6 6 13 24
17 40 7 26 9 27 80 27 l72 0 16 -40 c14 -38 18 -40 56 -40 23 0 41 3 41 7 0 4
-30 85 -67 180 l-68 173 -46 0 -46 0 -67 -170z m136 22 c26 -68 25 -72 -28
-72 -33 0 -45 4 -41 13 2 6 13 35 23 64 10 29 21 50 23 47 3 -3 13 -26 23 -52z"/>
<path d="M1856 589 c-36 -94 -66 -175 -66 -180 0 -14 66 -11 78 4 6 6 13 24
17 40 7 26 9 27 80 27 l72 0 16 -40 c14 -38 18 -40 56 -40 23 0 41 3 41 8 0 4
-30 85 -67 179 l-68 173 -46 0 -46 0 -67 -171z m137 23 c25 -64 23 -72 -21
-72 -21 0 -41 3 -44 6 -4 3 4 32 15 64 12 33 25 56 28 52 3 -4 13 -26 22 -50z"/>
<path d="M2170 579 l0 -180 38 3 37 3 -1 130 c-1 72 1 123 3 115 3 -8 35 -68
71 -132 l66 -118 48 0 48 0 0 180 0 180 -41 0 -42 0 5 -132 c5 -118 4 -128 -8
-99 -7 18 -39 77 -69 132 l-56 99 -50 0 -49 0 0 -181z"/>
<path d="M2530 580 l0 -181 118 3 117 3 0 30 0 30 -77 3 -78 3 0 39 0 40 60 0
60 0 0 35 0 35 -60 0 -60 0 0 35 0 35 70 0 70 0 0 35 0 35 -110 0 -110 0 0
-180z"/>
<path d="M2794 747 c-2 -7 -3 -87 -2 -177 l3 -165 105 0 105 0 3 33 3 32 -65
0 -66 0 0 145 0 145 -40 0 c-24 0 -43 -5 -46 -13z"/>
<path d="M3020 580 l0 -180 45 0 45 0 0 180 0 180 -45 0 -45 0 0 -180z"/>
<path d="M3188 587 c-38 -96 -68 -177 -68 -180 0 -4 18 -7 39 -7 36 0 40 3 55
40 l16 41 72 -3 71 -3 12 -35 c11 -32 16 -35 53 -38 29 -2 42 1 42 9 0 7 -30
88 -66 181 l-66 168 -47 0 -46 0 -67 -173z m155 -39 c-7 -13 -83 -9 -83 3 0 7
10 38 21 71 l22 58 22 -62 c12 -35 20 -66 18 -70z"/>
</g>
</svg>
